<mxfile><diagram id="DcF_8lo3t6CyfY8iJLOH" name="Page-1"><mxGraphModel dx="523" dy="377" grid="1" gridSize="10" guides="1" tooltips="1" connect="1" arrows="1" fold="1" page="1" pageScale="1" pageWidth="850" pageHeight="1100" math="0" shadow="0"><root><mxCell id="0"/><mxCell id="1" parent="0"/><mxCell id="25" style="edgeStyle=none;html=1;exitX=1;exitY=0.5;exitDx=0;exitDy=0;fontSize=25;entryX=-0.001;entryY=0.108;entryDx=0;entryDy=0;entryPerimeter=0;fillColor=#60a917;strokeColor=#2D7600;" edge="1" parent="1" source="2" target="7"><mxGeometry relative="1" as="geometry"><mxPoint x="190" y="539.9090909090908" as="targetPoint"/></mxGeometry></mxCell><mxCell id="2" value="&lt;div style=&quot;text-align: center;&quot;&gt;&lt;span style=&quot;background-color: initial;&quot;&gt;&lt;b&gt;Temperature and Humidity Sensor&lt;/b&gt;&lt;/span&gt;&lt;/div&gt;" style="rounded=1;whiteSpace=wrap;html=1;align=center;" vertex="1" parent="1"><mxGeometry x="40" y="510" width="120" height="60" as="geometry"/></mxCell><mxCell id="27" style="edgeStyle=none;html=1;entryX=-0.008;entryY=0.275;entryDx=0;entryDy=0;entryPerimeter=0;fontSize=25;fillColor=#60a917;strokeColor=#2D7600;" edge="1" parent="1" source="3" target="7"><mxGeometry relative="1" as="geometry"/></mxCell><mxCell id="3" value="&lt;b&gt;Water Level Sensor&lt;/b&gt;" style="rounded=1;whiteSpace=wrap;html=1;" vertex="1" parent="1"><mxGeometry x="40" y="600" width="120" height="60" as="geometry"/></mxCell><mxCell id="28" style="edgeStyle=none;html=1;exitX=1;exitY=0.5;exitDx=0;exitDy=0;entryX=-0.005;entryY=0.431;entryDx=0;entryDy=0;entryPerimeter=0;fontSize=25;fillColor=#60a917;strokeColor=#2D7600;" edge="1" parent="1" source="4" target="7"><mxGeometry relative="1" as="geometry"/></mxCell><mxCell id="4" value="&lt;b&gt;Current and Voltage Sensors&lt;/b&gt;" style="rounded=1;whiteSpace=wrap;html=1;" vertex="1" parent="1"><mxGeometry x="40" y="690" width="120" height="60" as="geometry"/></mxCell><mxCell id="29" style="edgeStyle=none;html=1;fontSize=25;entryX=0.002;entryY=0.591;entryDx=0;entryDy=0;entryPerimeter=0;fillColor=#60a917;strokeColor=#2D7600;" edge="1" parent="1" source="5" target="7"><mxGeometry relative="1" as="geometry"><mxPoint x="290" y="810" as="targetPoint"/></mxGeometry></mxCell><mxCell id="5" value="&lt;b&gt;Nutrient Sensor&lt;/b&gt;" style="rounded=1;whiteSpace=wrap;html=1;" vertex="1" parent="1"><mxGeometry x="40" y="780" width="120" height="60" as="geometry"/></mxCell><mxCell id="30" style="edgeStyle=none;html=1;entryX=0;entryY=0.75;entryDx=0;entryDy=0;fontSize=25;fillColor=#60a917;strokeColor=#2D7600;" edge="1" parent="1" source="6" target="7"><mxGeometry relative="1" as="geometry"/></mxCell><mxCell id="6" value="&lt;b&gt;Soil Moisture Sensor&lt;/b&gt;" style="rounded=1;whiteSpace=wrap;html=1;" vertex="1" parent="1"><mxGeometry x="40" y="870" width="120" height="60" as="geometry"/></mxCell><mxCell id="7" value="&lt;b&gt;&lt;font style=&quot;font-size: 14px;&quot;&gt;Raspberry Pi (Central Controller)&lt;/font&gt;&lt;/b&gt;" style="rounded=0;whiteSpace=wrap;html=1;strokeColor=#006666;" vertex="1" parent="1"><mxGeometry x="300" y="480" width="275" height="555" as="geometry"/></mxCell><mxCell id="31" style="edgeStyle=none;html=1;entryX=0;entryY=0.919;entryDx=0;entryDy=0;entryPerimeter=0;fontSize=25;fillColor=#1ba1e2;strokeColor=#006EAF;" edge="1" parent="1" source="10" target="7"><mxGeometry relative="1" as="geometry"/></mxCell><mxCell id="10" value="&lt;b&gt;ESP Camera&lt;/b&gt;" style="rounded=1;whiteSpace=wrap;html=1;fontSize=14;" vertex="1" parent="1"><mxGeometry x="40" y="960" width="120" height="60" as="geometry"/></mxCell><mxCell id="12" value="&lt;i&gt;&lt;b&gt;Fan&lt;/b&gt;&lt;/i&gt;" style="rounded=0;whiteSpace=wrap;html=1;fontSize=14;" vertex="1" parent="1"><mxGeometry x="680" y="520" width="120" height="60" as="geometry"/></mxCell><mxCell id="13" value="&lt;b&gt;Lights&lt;/b&gt;" style="rounded=0;whiteSpace=wrap;html=1;fontSize=14;" vertex="1" parent="1"><mxGeometry x="680" y="610" width="120" height="60" as="geometry"/></mxCell><mxCell id="14" value="&lt;b&gt;Pumps&lt;br&gt;Electrovalves&lt;/b&gt;" style="rounded=0;whiteSpace=wrap;html=1;fontSize=14;align=center;" vertex="1" parent="1"><mxGeometry x="680" y="690" width="120" height="60" as="geometry"/></mxCell><mxCell id="15" value="" style="rounded=0;whiteSpace=wrap;html=1;fontSize=14;strokeColor=#006666;" vertex="1" parent="1"><mxGeometry x="40" y="30" width="760" height="400" as="geometry"/></mxCell><mxCell id="17" value="" style="rounded=0;whiteSpace=wrap;html=1;fontSize=14;" vertex="1" parent="1"><mxGeometry x="70" y="140" width="700" height="280" as="geometry"/></mxCell><mxCell id="18" value="&lt;b&gt;Sensor&lt;/b&gt;" style="rounded=1;whiteSpace=wrap;html=1;fontSize=14;strokeColor=#FF3333;" vertex="1" parent="1"><mxGeometry x="80" y="250" width="120" height="150" as="geometry"/></mxCell><mxCell id="19" value="&lt;b&gt;Data&lt;/b&gt;" style="rounded=1;whiteSpace=wrap;html=1;fontSize=14;strokeColor=#FFFF33;" vertex="1" parent="1"><mxGeometry x="220" y="250" width="120" height="150" as="geometry"/></mxCell><mxCell id="20" value="&lt;b&gt;Images&lt;/b&gt;" style="rounded=1;whiteSpace=wrap;html=1;fontSize=14;strokeColor=#33FFFF;" vertex="1" parent="1"><mxGeometry x="360" y="250" width="130" height="150" as="geometry"/></mxCell><mxCell id="21" value="&lt;b&gt;Settings&lt;/b&gt;" style="rounded=1;whiteSpace=wrap;html=1;fontSize=14;strokeColor=#3333FF;" vertex="1" parent="1"><mxGeometry x="600" y="250" width="160" height="150" as="geometry"/></mxCell><mxCell id="22" value="&lt;b&gt;&lt;font style=&quot;font-size: 25px;&quot;&gt;Database&lt;/font&gt;&lt;/b&gt;" style="text;strokeColor=none;align=center;fillColor=none;html=1;verticalAlign=middle;whiteSpace=wrap;rounded=0;fontSize=14;" vertex="1" parent="1"><mxGeometry x="170" y="180" width="480" height="30" as="geometry"/></mxCell><mxCell id="23" value="&lt;b&gt;Django Web Interface&lt;/b&gt;" style="text;strokeColor=none;align=center;fillColor=none;html=1;verticalAlign=middle;whiteSpace=wrap;rounded=0;fontSize=25;" vertex="1" parent="1"><mxGeometry x="240" y="80" width="320" height="30" as="geometry"/></mxCell><mxCell id="32" value="" style="endArrow=classic;html=1;fontSize=25;entryX=0;entryY=0.5;entryDx=0;entryDy=0;exitX=0.998;exitY=0.127;exitDx=0;exitDy=0;exitPerimeter=0;fillColor=#e3c800;strokeColor=#B09500;" edge="1" parent="1" source="7" target="12"><mxGeometry width="50" height="50" relative="1" as="geometry"><mxPoint x="580" y="550" as="sourcePoint"/><mxPoint x="670" y="525" as="targetPoint"/></mxGeometry></mxCell><mxCell id="34" value="" style="endArrow=classic;html=1;fontSize=25;entryX=0;entryY=0.5;entryDx=0;entryDy=0;exitX=0.998;exitY=0.127;exitDx=0;exitDy=0;exitPerimeter=0;fillColor=#e3c800;strokeColor=#B09500;" edge="1" parent="1"><mxGeometry width="50" height="50" relative="1" as="geometry"><mxPoint x="575" y="639.955" as="sourcePoint"/><mxPoint x="680.5499999999997" y="639.47" as="targetPoint"/></mxGeometry></mxCell><mxCell id="35" value="" style="endArrow=classic;html=1;fontSize=25;entryX=0;entryY=0.5;entryDx=0;entryDy=0;exitX=0.998;exitY=0.127;exitDx=0;exitDy=0;exitPerimeter=0;fillColor=#e3c800;strokeColor=#B09500;" edge="1" parent="1"><mxGeometry width="50" height="50" relative="1" as="geometry"><mxPoint x="575.0000000000002" y="720.4250000000001" as="sourcePoint"/><mxPoint x="680.5499999999997" y="719.94" as="targetPoint"/><Array as="points"><mxPoint x="620" y="719.47"/></Array></mxGeometry></mxCell><mxCell id="36" value="" style="shape=flexArrow;endArrow=classic;startArrow=classic;html=1;fontSize=25;strokeColor=#CC0000;" edge="1" parent="1" source="7" target="15"><mxGeometry width="100" height="100" relative="1" as="geometry"><mxPoint x="370" y="510" as="sourcePoint"/><mxPoint x="470" y="410" as="targetPoint"/></mxGeometry></mxCell><mxCell id="37" value="&lt;font style=&quot;font-size: 11px;&quot;&gt;Data Input&lt;/font&gt;" style="text;strokeColor=none;align=center;fillColor=none;html=1;verticalAlign=middle;whiteSpace=wrap;rounded=0;fontSize=19;" vertex="1" parent="1"><mxGeometry x="180" y="510" width="90" height="30" as="geometry"/></mxCell><mxCell id="38" value="&lt;font style=&quot;font-size: 11px;&quot;&gt;Data Input&lt;/font&gt;" style="text;strokeColor=none;align=center;fillColor=none;html=1;verticalAlign=middle;whiteSpace=wrap;rounded=0;fontSize=19;" vertex="1" parent="1"><mxGeometry x="180" y="600" width="90" height="30" as="geometry"/></mxCell><mxCell id="39" value="&lt;font style=&quot;font-size: 11px;&quot;&gt;Data Input&lt;/font&gt;" style="text;strokeColor=none;align=center;fillColor=none;html=1;verticalAlign=middle;whiteSpace=wrap;rounded=0;fontSize=19;" vertex="1" parent="1"><mxGeometry x="180" y="690" width="90" height="30" as="geometry"/></mxCell><mxCell id="40" value="&lt;font style=&quot;font-size: 11px;&quot;&gt;Data Input&lt;/font&gt;" style="text;strokeColor=none;align=center;fillColor=none;html=1;verticalAlign=middle;whiteSpace=wrap;rounded=0;fontSize=19;" vertex="1" parent="1"><mxGeometry x="190" y="780" width="90" height="30" as="geometry"/></mxCell><mxCell id="41" value="&lt;font style=&quot;font-size: 11px;&quot;&gt;Data Input&lt;/font&gt;" style="text;strokeColor=none;align=center;fillColor=none;html=1;verticalAlign=middle;whiteSpace=wrap;rounded=0;fontSize=19;" vertex="1" parent="1"><mxGeometry x="190" y="870" width="90" height="30" as="geometry"/></mxCell><mxCell id="42" value="&lt;font style=&quot;font-size: 11px;&quot;&gt;Image Input&lt;/font&gt;" style="text;strokeColor=none;align=center;fillColor=none;html=1;verticalAlign=middle;whiteSpace=wrap;rounded=0;fontSize=19;" vertex="1" parent="1"><mxGeometry x="190" y="960" width="90" height="30" as="geometry"/></mxCell><mxCell id="43" value="&lt;font style=&quot;font-size: 11px;&quot;&gt;Control Signals&lt;/font&gt;" style="text;strokeColor=none;align=center;fillColor=none;html=1;verticalAlign=middle;whiteSpace=wrap;rounded=0;fontSize=19;" vertex="1" parent="1"><mxGeometry x="580" y="690" width="90" height="30" as="geometry"/></mxCell><mxCell id="44" value="&lt;font style=&quot;font-size: 11px;&quot;&gt;Control Signals&lt;/font&gt;" style="text;strokeColor=none;align=center;fillColor=none;html=1;verticalAlign=middle;whiteSpace=wrap;rounded=0;fontSize=19;" vertex="1" parent="1"><mxGeometry x="580" y="610" width="90" height="30" as="geometry"/></mxCell><mxCell id="45" value="&lt;font style=&quot;font-size: 11px;&quot;&gt;Control Signals&lt;/font&gt;" style="text;strokeColor=none;align=center;fillColor=none;html=1;verticalAlign=middle;whiteSpace=wrap;rounded=0;fontSize=19;" vertex="1" parent="1"><mxGeometry x="580" y="520" width="90" height="30" as="geometry"/></mxCell><mxCell id="46" value="&lt;font style=&quot;font-size: 11px;&quot;&gt;Data/Control Commands&lt;/font&gt;" style="text;strokeColor=none;align=center;fillColor=none;html=1;verticalAlign=middle;whiteSpace=wrap;rounded=0;fontSize=19;" vertex="1" parent="1"><mxGeometry x="450" y="440" width="140" height="30" as="geometry"/></mxCell></root></mxGraphModel></diagram></mxfile>